<svg viewBox="0 0 800 240" xmlns="http://www.w3.org/2000/svg" role="img" aria-label="창고 — 정원 끝의 낡은 창고. 선반에 놓였던 무거운 물건 하나가 사라진 자리">
  <rect width="800" height="240" fill="#14110f"/>
  <rect y="200" width="800" height="40" fill="#1b1714"/>
  <path d="M0 200 H800" stroke="#3a322a" stroke-width="2"/>

  <g stroke="#3a322a" stroke-width="2" fill="none">
    <path d="M70 200 V70 H730 V200"/>
    <path d="M60 70 L400 26 L740 70"/>
    <path d="M400 26 V200"/>
  </g>

  <g stroke="#3a322a" stroke-width="2" fill="#1e1a17">
    <rect x="96" y="96" width="250" height="12"/>
    <rect x="96" y="150" width="250" height="12"/>
    <path d="M112 108 v42 M330 108 v42 M112 162 v38 M330 162 v38"/>
  </g>
  <g fill="#241f1a" stroke="#3a322a" stroke-width="1.5">
    <rect x="106" y="66" width="34" height="30"/>
    <rect x="150" y="72" width="26" height="24"/>
    <rect x="248" y="70" width="40" height="26"/>
    <rect x="110" y="122" width="30" height="28"/>
    <rect x="252" y="126" width="36" height="24"/>
    <rect x="300" y="120" width="30" height="30"/>
  </g>

  <rect x="186" y="120" width="48" height="30" fill="#14110f"
        stroke="#f2c14e" stroke-width="2" stroke-dasharray="6 4"/>
  <g fill="#f2c14e" opacity="0.28">
    <circle cx="196" cy="156" r="2"/><circle cx="210" cy="158" r="1.6"/>
    <circle cx="224" cy="155" r="2.2"/><circle cx="204" cy="162" r="1.4"/>
  </g>
  <text x="210" y="112" fill="#f2c14e" font-family="serif" font-size="11" text-anchor="middle" opacity="0.9">빈 자리</text>

  <g stroke="#3a322a" stroke-width="2" fill="#1a1613">
    <rect x="470" y="112" width="88" height="88"/>
    <path d="M470 156 H558 M514 112 V200"/>
  </g>
  <g stroke="#2f2822" stroke-width="2" fill="#191512">
    <path d="M600 200 v-52 h56 v52 z"/>
    <path d="M600 148 l28 -18 l28 18"/>
  </g>
  <g stroke="#5f564a" stroke-width="2" opacity="0.7">
    <path d="M688 200 V132 M700 200 V138 M712 200 V128"/>
  </g>

  <g stroke="#3a322a" stroke-width="2" fill="none">
    <path d="M400 96 h44 v104"/>
  </g>
  <circle cx="436" cy="150" r="4" fill="#d9a94a" opacity="0.6"/>

  <g fill="#d9a94a" opacity="0.3">
    <ellipse cx="452" cy="216" rx="9" ry="5" transform="rotate(-12 452 216)"/>
    <ellipse cx="492" cy="222" rx="9" ry="5" transform="rotate(-12 492 222)"/>
  </g>
</svg>
