<svg viewBox="0 0 520 200" xmlns="http://www.w3.org/2000/svg" role="img" aria-label="23시 20분 — 비가 그친 정원, 창고에서 대리석 문진을 꺼내고 젖은 흙에 발자국이 남는다">
  <rect width="520" height="200" fill="#1a1613"/>
  <rect x="3" y="3" width="514" height="194" fill="none" stroke="#3a322a" stroke-width="2"/>

  <text x="26" y="30" fill="#d9a94a" font-family="serif" font-size="13">23:20 · 비가 그쳤다</text>

  <path d="M0 152 H520 V197 H0 Z" fill="#201914"/>
  <path d="M0 152 H520" stroke="#3a322a" stroke-width="2"/>

  <g stroke="#3a322a" stroke-width="2" fill="#1e1a17">
    <path d="M356 152 v-70 l52 -26 l52 26 v70 z"/>
    <rect x="392" y="106" width="40" height="46"/>
  </g>
  <path d="M392 106 h40" stroke="#3a322a" stroke-width="2"/>
  <path d="M426 130 v10" stroke="#d9a94a" stroke-width="2" opacity="0.8"/>
  <text x="408" y="70" fill="#8a7f70" font-family="serif" font-size="11" text-anchor="middle">창고</text>

  <g stroke="#d9a94a" stroke-width="2" fill="#241f1a" opacity="0.95">
    <rect x="300" y="116" width="34" height="20" rx="3"/>
    <path d="M306 116 v-6 h22 v6"/>
  </g>
  <text x="317" y="106" fill="#d9a94a" font-family="serif" font-size="10" text-anchor="middle">문진</text>

  <g fill="#2c2621" stroke="#5a4f42" stroke-width="2">
    <circle cx="252" cy="96" r="13"/>
    <path d="M252 109 v36 M252 120 l22 4 M252 120 l-18 12 M252 145 l-11 26 M252 145 l11 26"/>
  </g>

  <g fill="#d9a94a" opacity="0.42">
    <ellipse cx="60" cy="172" rx="10" ry="5" transform="rotate(-12 60 172)"/>
    <ellipse cx="102" cy="164" rx="10" ry="5" transform="rotate(-12 102 164)"/>
    <ellipse cx="144" cy="176" rx="10" ry="5" transform="rotate(-12 144 176)"/>
    <ellipse cx="186" cy="166" rx="10" ry="5" transform="rotate(-12 186 166)"/>
  </g>
  <path d="M40 186 H210" stroke="#5f564a" stroke-width="1.5" stroke-dasharray="5 6"/>
  <text x="124" y="146" fill="#8a7f70" font-family="serif" font-size="10" text-anchor="middle">젖은 흙 · 왕복</text>

  <g stroke="#6d8394" stroke-width="1.5" opacity="0.18">
    <path d="M470 44 l-4 12 M496 38 l-4 12"/>
  </g>
</svg>
